<?xml version="1.0" encoding="UTF-8" standalone="no"?>
<!-- Created with Inkscape (http://www.inkscape.org/) -->

<svg
   xmlns:dc="http://purl.org/dc/elements/1.1/"
   xmlns:cc="http://creativecommons.org/ns#"
   xmlns:rdf="http://www.w3.org/1999/02/22-rdf-syntax-ns#"
   xmlns:svg="http://www.w3.org/2000/svg"
   xmlns="http://www.w3.org/2000/svg"
   xmlns:sodipodi="http://sodipodi.sourceforge.net/DTD/sodipodi-0.dtd"
   xmlns:inkscape="http://www.inkscape.org/namespaces/inkscape"
   width="64.864075mm"
   height="68.854797mm"
   viewBox="0 0 64.864075 68.854797"
   version="1.1"
   id="svg4585"
   inkscape:version="0.92.1 r15371"
   sodipodi:docname="logo.svg">
  <defs
     id="defs4579" />
  <sodipodi:namedview
     id="base"
     pagecolor="#ffffff"
     bordercolor="#666666"
     borderopacity="1.0"
     inkscape:pageopacity="0.0"
     inkscape:pageshadow="2"
     inkscape:zoom="1.979899"
     inkscape:cx="43.080036"
     inkscape:cy="108.71416"
     inkscape:document-units="mm"
     inkscape:current-layer="layer1"
     showgrid="false"
     fit-margin-top="0"
     fit-margin-left="0"
     fit-margin-right="0"
     fit-margin-bottom="0"
     inkscape:window-width="1855"
     inkscape:window-height="1056"
     inkscape:window-x="65"
     inkscape:window-y="24"
     inkscape:window-maximized="1" />
  <metadata
     id="metadata4582">
    <rdf:RDF>
      <cc:Work
         rdf:about="">
        <dc:format>image/svg+xml</dc:format>
        <dc:type
           rdf:resource="http://purl.org/dc/dcmitype/StillImage" />
        <dc:title></dc:title>
      </cc:Work>
    </rdf:RDF>
  </metadata>
  <g
     inkscape:label="Layer 1"
     inkscape:groupmode="layer"
     id="layer1"
     transform="translate(0,-228.14524)">
    <path
       style="fill:#141419;stroke-width:0.35277778;fill-opacity:1"
       d="M 24.341667,296.80333 C 19.370556,296.27158 14.357601,294.70734 8.819444,291.95979 5.078286,290.10375 0,286.67787 0,286.01007 c 0,-0.23904 1.126922,-1.83492 2.504268,-3.54641 l 2.504268,-3.11178 0.758929,0.6814 c 3.652543,3.27948 10.601361,6.40151 17.122581,7.69299 4.124735,0.81688 12.407199,0.54619 16.621064,-0.54321 10.235937,-2.64626 16.210527,-9.28194 16.210527,-18.00419 0,-4.53168 -1.42953,-8.03947 -4.70804,-11.5526 -3.42139,-3.66623 -8.051553,-5.49559 -15.030264,-5.93841 -7.961894,-0.50521 -12.674631,1.32343 -11.570853,4.48973 0.60711,1.74155 1.275302,1.88878 8.572243,1.88878 6.244754,0 6.868287,0.0597 9.124847,0.8734 3.023697,1.09035 5.166917,2.92815 6.191037,5.30878 2.85627,6.63958 -0.32858,13.48524 -7.526802,16.17845 -2.957901,1.10669 -9.337125,1.9207 -12.996238,1.65835 -11.486565,-0.82356 -19.406264,-5.4219 -24.586221,-14.27526 -1.977678,-3.38017 -2.912297,-6.79832 -3.09827,-11.33122 -0.206513,-5.03344 0.353089,-7.68071 2.610045,-12.34722 1.397664,-2.88982 2.08837,-3.81898 5.01514,-6.74652 3.010265,-3.01105 3.813273,-3.59848 7.098406,-5.1927 2.17492,-1.05546 5.451877,-2.26405 7.9375,-2.92746 3.940058,-1.05161 4.624366,-1.12913 9.877777,-1.11897 6.33095,0.0122 10.440191,0.68679 15.941463,2.61686 2.78162,0.97591 8.66029,3.63485 9.95237,4.50149 0.39983,0.26817 0.13122,0.97577 -1.41111,3.71723 -1.04772,1.8623 -2.02853,3.38604 -2.17959,3.38609 -0.15105,5e-5 -1.18293,-0.45633 -2.29306,-1.01418 -2.81675,-1.41544 -6.35175,-2.63389 -10.485073,-3.61404 -5.067462,-1.20166 -13.451494,-1.21269 -17.804779,-0.0234 -6.537018,1.78583 -11.312906,5.43042 -13.83838,10.56038 -0.990369,2.01172 -1.132302,2.68782 -1.271013,6.05438 -0.241908,5.87135 1.224184,9.80774 5.058193,13.58097 3.681706,3.62336 8.479977,5.25447 15.508758,5.27202 6.765496,0.0169 10.406944,-1.27808 10.406944,-3.70091 0,-2.71383 -1.094838,-3.07679 -8.589928,-2.84773 -9.429618,0.28818 -12.948669,-1.14905 -15.366016,-6.2757 -1.24069,-2.63123 -1.265317,-7.07343 -0.05327,-9.60819 1.632773,-3.41462 5.042747,-5.81344 10.250879,-7.21119 3.576297,-0.95981 11.929759,-0.85565 15.875,0.19794 6.809545,1.81852 11.161335,4.19108 15.396795,8.39422 3.83672,3.80745 5.82052,7.68484 6.71273,13.12018 0.5626,3.42741 0.56231,3.86172 -0.005,7.3883 -1.03824,6.45446 -3.55749,11.20033 -8.31531,15.66473 -4.5386,4.25868 -10.29568,6.94869 -17.596002,8.22176 -2.742432,0.47824 -10.824728,0.63559 -14.184921,0.27615 z"
       id="path4568"
       inkscape:connector-curvature="0" />
  </g>
</svg>
